<svg xmlns="http://www.w3.org/2000/svg">

    <!-- play -->
    <symbol id="play" viewBox="0 0 82 118" preserveAspectRatio="xMinYMin meet">
        <g>
	<path class="st0" d="M78.23,66.24l-62.47,49.77C9.79,120.75,1,116.49,1,108.87V9.33C1,1.71,9.79-2.55,15.76,2.19l62.47,49.77
		C82.83,55.6,82.83,62.6,78.23,66.24z"/>
	</g>
	<g>
	<path class="st0" d="M77.23,66.24l-62.47,49.77C8.79,120.75,0,116.49,0,108.87V9.33C0,1.71,8.79-2.55,14.76,2.19l62.47,49.77
		C81.83,55.6,81.83,62.6,77.23,66.24z"/>
	</g>
	<g>
	<path class="st0" d="M78.23,66.24l-62.47,49.77C9.79,120.75,1,116.49,1,108.87V9.33C1,1.71,9.79-2.55,15.76,2.19l62.47,49.77
		C82.83,55.6,82.83,62.6,78.23,66.24z"/>
	</g>
	<g>
	<path class="st0" d="M78.23,66.24l-62.47,49.77C9.79,120.75,1,116.49,1,108.87V9.33C1,1.71,9.79-2.55,15.76,2.19l62.47,49.77
		C82.83,55.6,82.83,62.6,78.23,66.24z"/>
	</g>
    </symbol>

</svg>