<svg xmlns="http://www.w3.org/2000/svg">

    <!-- play -->
    <symbol id="play" viewBox="0 0 300 300" preserveAspectRatio="xMinYMin meet">
        <g>
            <path d="M196.1,139.6l-91-72.5c-8.7-6.9-21.5-0.7-21.5,10.4v145c0,11.1,12.8,17.3,21.5,10.4l91-72.5
		C202.8,155.1,202.8,144.9,196.1,139.6z"/>
        </g>
    </symbol>

    <!-- volume -->
    <symbol id="volume" viewBox="0 0 300 300" fill="#626262" preserveAspectRatio="xMinYMin meet">
        <g>
            <path d="M178.5,59.2L112.1,112c-4.8-2.6-10.3-4-16.1-4c-18.8,0-34,15.2-34,34s15.2,34,34,34c5.8,0,11.3-1.5,16.1-4
		l66.4,52.9c8.7,6.9,21.5,0.7,21.5-10.4v-145C200,58.4,187.2,52.2,178.5,59.2z"/>
        </g>
    </symbol>

</svg>